<svg xmlns="http://www.w3.org/2000/svg" viewBox="0 0 360 360" role="img" aria-labelledby="title desc">
  <title id="title">222Waffle menü QR hazırlık görseli</title>
  <desc id="desc">Domain hazır olunca gerçek QR kod ile değiştirilecek kare görsel.</desc>
  <rect width="360" height="360" fill="#fffcf7"/>
  <rect x="16" y="16" width="92" height="92" fill="#241816"/>
  <rect x="32" y="32" width="60" height="60" fill="#fffcf7"/>
  <rect x="48" y="48" width="28" height="28" fill="#241816"/>
  <rect x="252" y="16" width="92" height="92" fill="#241816"/>
  <rect x="268" y="32" width="60" height="60" fill="#fffcf7"/>
  <rect x="284" y="48" width="28" height="28" fill="#241816"/>
  <rect x="16" y="252" width="92" height="92" fill="#241816"/>
  <rect x="32" y="268" width="60" height="60" fill="#fffcf7"/>
  <rect x="48" y="284" width="28" height="28" fill="#241816"/>
  <g fill="#241816">
    <rect x="132" y="24" width="20" height="20"/>
    <rect x="164" y="24" width="52" height="20"/>
    <rect x="132" y="56" width="52" height="20"/>
    <rect x="204" y="56" width="20" height="52"/>
    <rect x="124" y="124" width="28" height="28"/>
    <rect x="164" y="124" width="20" height="60"/>
    <rect x="204" y="124" width="52" height="20"/>
    <rect x="284" y="124" width="20" height="52"/>
    <rect x="124" y="204" width="60" height="20"/>
    <rect x="204" y="188" width="20" height="56"/>
    <rect x="252" y="204" width="92" height="20"/>
    <rect x="132" y="284" width="20" height="60"/>
    <rect x="164" y="252" width="60" height="20"/>
    <rect x="236" y="260" width="28" height="28"/>
    <rect x="284" y="252" width="20" height="92"/>
    <rect x="316" y="284" width="28" height="28"/>
  </g>
  <circle cx="180" cy="180" r="64" fill="#f4c542" stroke="#241816" stroke-width="10"/>
  <text x="180" y="191" text-anchor="middle" font-family="Arial, sans-serif" font-size="44" font-weight="900" fill="#241816">222</text>
  <text x="180" y="232" text-anchor="middle" font-family="Arial, sans-serif" font-size="16" font-weight="900" fill="#241816">MENU HAZIRLANIYOR</text>
</svg>
